<svg xmlns="http://www.w3.org/2000/svg" width="100" height="21" xmlns:v="https://vecta.io/nano"><path d="M87.336 14.686l3.093-3.093a.51.51 0 0 0 .094-.557c-.085-.189-.271-.313-.475-.313a.52.52 0 0 0-.366.154l-3.068 3.078-3.123-3.122c-.1-.099-.229-.153-.364-.153-.205 0-.395.129-.476.32s-.036.411.116.56l3.115 3.126-3.069 3.069a.51.51 0 0 0-.117.563c.081.191.272.319.476.319.134 0 .265-.055.364-.154l3.078-3.078 3.113 2.862c.099.099.229.154.364.154a.52.52 0 0 0 .476-.312c.084-.189.046-.406-.106-.57z"/><path d="M83.172 18.874c-.298 0-.578-.186-.695-.465a.74.74 0 0 1 .169-.821l2.902-2.903-2.95-2.959c-.22-.217-.284-.531-.167-.816s.398-.467.697-.467c.199 0 .389.078.532.222l2.953 2.953 2.899-2.908c.146-.145.336-.224.535-.224a.76.76 0 0 1 .693.453.75.75 0 0 1-.136.814l-2.926 2.925 2.943 2.688c.228.247.284.562.163.84s-.395.455-.694.455a.75.75 0 0 1-.533-.224l-2.937-2.7-2.916 2.915c-.144.145-.333.224-.533.224m-.044-7.957c-.11 0-.212.07-.257.174a.27.27 0 0 0 .063.301l3.283 3.295-3.236 3.236c-.084.084-.11.198-.065.306.07.167.314.223.45.088l3.24-3.24 3.282 3.017c.155.156.383.094.459-.08.045-.103.022-.221-.063-.313l-3.294-3.007 3.268-3.268c.07-.078.09-.192.043-.297-.075-.169-.313-.223-.454-.085l-3.236 3.246-3.291-3.29c-.053-.056-.122-.084-.194-.084"/><path d="M95.973 12.618a2.01 2.01 0 0 0 2.063 1.953c1.111-.027 1.99-.945 1.963-2.05a2.01 2.01 0 0 0-2.061-1.953c-1.112.026-1.992.945-1.965 2.049m-8.228-9.616a2.014 2.014 0 1 0 4.027-.097A2.01 2.01 0 0 0 89.709.953c-1.112.027-1.992.944-1.965 2.048m-4.87-1.415c.021.856.738 1.532 1.597 1.511s1.542-.731 1.521-1.586S85.256-.02 84.397 0s-1.543.731-1.523 1.586m13.068 16.13c.02.783.673 1.403 1.463 1.384s1.413-.67 1.393-1.453-.675-1.404-1.463-1.384-1.412.668-1.393 1.453m-3.149 1.991a.842.842 0 1 0 1.683-.041.842.842 0 1 0-1.683.041M80.159 3.923a.92.92 0 0 0 .948.898c.511-.013.916-.435.904-.942s-.437-.911-.949-.899a.92.92 0 0 0-.903.943m-.107 3.624c.01.399.342.713.741.704s.716-.341.708-.738a.72.72 0 1 0-1.449.035m12.242-.414c.034 1.382 1.189 2.475 2.579 2.442a2.51 2.51 0 0 0 2.455-2.562c-.034-1.379-1.189-2.476-2.579-2.442a2.51 2.51 0 0 0-2.455 2.562" fill="#007a97"/><path d="M6.344 10.702H.892a.65.65 0 0 0-.654.662v6.604a.65.65 0 0 0 .654.66h5.462c.967 0 1.848-.87 1.848-1.826v-4.263c0-.944-.903-1.836-1.858-1.836m.011 6.89l-2.737.005-.242.001-2.105.004v-5.874h5.073a.89.89 0 0 1 .816.822v4.252c0 .399-.399.79-.805.79"/><path d="M6.354 18.864H.893c-.501 0-.893-.395-.893-.898v-6.603c0-.504.392-.899.893-.899h5.451c1.078 0 2.098 1.008 2.098 2.075v4.263c-.001 1.079-.996 2.062-2.087 2.062M.893 10.938c-.237 0-.416.184-.416.425v6.604a.41.41 0 0 0 .416.424h5.461c.843 0 1.61-.757 1.61-1.589v-4.263c0-.808-.802-1.601-1.62-1.601zm.139 6.901V11.49h5.311c.532 0 1.055.525 1.055 1.059v4.252c0 .528-.507 1.027-1.044 1.027l-2.736.006h-.242l-2.105.004zm.477-5.875v5.4l1.866-.004.241-.001 2.738-.005a.62.62 0 0 0 .568-.554v-4.252a.65.65 0 0 0-.579-.584zm17.175-1.262h-4.073c-1.088 0-1.971.83-1.971 1.848v5.611c0 .285.224.509.51.509s.521-.228.521-.509V15.42h5.951v2.741c0 .282.233.509.52.509a.51.51 0 0 0 .511-.509V12.55c.001-1.14-1.023-1.848-1.971-1.848m.939 1.848v1.874H13.67V12.55c0-.507.492-.821.95-.821h4.052c.456 0 .949.314.949.821"/><path d="M20.144 18.906c-.418 0-.76-.334-.76-.745v-2.505H13.91v2.506c0 .411-.341.745-.759.745a.74.74 0 0 1-.749-.745V12.55c0-1.15.992-2.085 2.21-2.085h4.072c1.063 0 2.21.797 2.21 2.085v5.612a.75.75 0 0 1-.75.745m-6.712-3.725h6.429v2.979c0 .15.126.272.282.272.15 0 .272-.122.272-.272v-5.612c0-.996-.9-1.612-1.733-1.612H14.61c-.956 0-1.733.723-1.733 1.612v5.612c0 .155.117.272.272.272s.282-.122.282-.272v-2.979zm6.43-.522h-6.43v-2.111c0-.654.618-1.059 1.189-1.059h4.051c.571 0 1.189.405 1.189 1.059zm-5.952-.474h5.475V12.55c0-.361-.37-.584-.712-.584h-4.051c-.342 0-.712.223-.712.584v1.636zm16.833-3.484H24.88a.513.513 0 1 0 0 1.027h2.421l-.005 3.024-.001.822-.004 2.586a.51.51 0 0 0 .521.509.51.51 0 0 0 .521-.509v-6.433h2.41a.51.51 0 1 0-.001-1.027"/><path d="M27.812 18.906c-.426 0-.76-.328-.76-.746l.004-2.586.003-1.492.004-2.117H24.88c-.424 0-.757-.331-.757-.751s.332-.749.757-.749h5.862c.424 0 .757.329.757.749s-.333.751-.757.751H28.57v6.195c.001.418-.333.746-.759.746m-2.932-7.968c-.159 0-.279.119-.279.277s.12.277.279.277h2.659v.238l-.004 2.354-.003 1.492-.003 2.586c0 .155.122.272.283.272a.27.27 0 0 0 .282-.272V11.49h2.648c.16 0 .28-.119.28-.277s-.12-.277-.28-.277H24.88zm16.37-.236h-4.073c-1.088 0-1.972.83-1.972 1.848v5.611c0 .285.224.509.51.509s.522-.228.522-.509V15.42h5.951v2.741c0 .282.234.509.521.509a.51.51 0 0 0 .511-.509V12.55c0-1.14-1.023-1.848-1.971-1.848m.939 1.848v1.874h-5.951V12.55c0-.507.493-.821.949-.821h4.052c.456 0 .949.314.949.821"/><path d="M42.71 18.906c-.419 0-.76-.334-.76-.745v-2.505h-5.474v2.506c0 .411-.341.745-.76.745a.74.74 0 0 1-.749-.745V12.55c0-1.15.99-2.085 2.21-2.085h4.072c1.063 0 2.21.797 2.21 2.085v5.612a.75.75 0 0 1-.749.745m-6.711-3.725h6.428v2.979c0 .15.127.272.283.272.15 0 .272-.122.272-.272v-5.612c0-.996-.899-1.612-1.733-1.612h-4.072c-.956 0-1.733.723-1.733 1.612v5.612c0 .155.117.272.272.272s.283-.122.283-.272zm6.428-.522h-6.428v-2.111c0-.654.617-1.059 1.187-1.059h4.052c.572 0 1.188.405 1.188 1.059v2.111zm-5.951-.474h5.474V12.55c0-.361-.37-.584-.711-.584h-4.052c-.341 0-.711.223-.711.584zm17.455-.018h-4.463c-.552 0-.803-.641-.803-1.236 0-.58.245-1.204.782-1.204h4.917a.513.513 0 1 0 0-1.026h-4.917c-1.191 0-1.815 1.127-1.815 2.239 0 1.085.577 2.253 1.845 2.253h4.4c.561.005.816.643.814 1.234-.002.566-.247 1.174-.781 1.174h-5.657c-.287 0-.51.226-.51.513s.224.512.51.512h5.646c1.257 0 1.83-1.159 1.83-2.237-.001-1.105-.618-2.223-1.8-2.223"/><path d="M53.9 18.863h-5.646a.749.749 0 1 1 0-1.499h5.657c.396 0 .541-.561.542-.938.001-.398-.151-.993-.578-.996h-4.397c-1.432 0-2.084-1.291-2.084-2.49 0-1.23.705-2.476 2.053-2.476h4.917c.424 0 .756.329.756.749s-.333.751-.756.751h-4.917c-.399 0-.544.579-.544.967 0 .401.15.999.564.999h4.463c1.337 0 2.037 1.237 2.037 2.459.001 1.191-.645 2.473-2.067 2.473m-5.646-1.024c-.155 0-.272.119-.272.276s.117.275.272.275H53.9c1.094 0 1.592-1.037 1.592-2 0-.987-.535-1.986-1.561-1.986h-4.463c-.716 0-1.041-.764-1.041-1.472 0-.694.319-1.442 1.021-1.442h4.917c.159 0 .279-.119.279-.277s-.12-.277-.279-.277h-4.917c-1.035 0-1.577 1.008-1.577 2.003 0 .971.504 2.016 1.608 2.016h4.4c.728.006 1.054.767 1.052 1.472-.002.679-.322 1.41-1.019 1.41h-5.657zm17.552-7.136h-6.377a.51.51 0 0 0-.52.513.51.51 0 0 0 .52.514h2.934l-.006 3.024-.005 3.408a.51.51 0 0 0 .521.509.51.51 0 0 0 .52-.509v-6.433h2.411a.514.514 0 1 0 .001-1.027"/><path d="M62.874 18.906c-.425 0-.76-.328-.76-.746l.006-3.409.005-2.786H59.43c-.426 0-.758-.331-.758-.751s.333-.749.758-.749h6.376c.424 0 .756.329.756.749s-.333.751-.756.751h-2.172v6.195c-.001.418-.335.746-.76.746m-3.445-7.968c-.161 0-.281.119-.281.277s.12.277.281.277h3.173l-.006 3.262-.005 3.408c0 .155.122.272.283.272s.283-.116.283-.272V11.49h2.649c.16 0 .28-.119.28-.277s-.12-.277-.28-.277h-6.377zm16.882-.236h-4.072c-1.088 0-1.971.83-1.971 1.848v5.611c0 .285.225.509.51.509s.522-.228.522-.509V15.42h5.951v2.741c0 .282.234.509.521.509a.51.51 0 0 0 .511-.509V12.55c0-1.14-1.022-1.848-1.971-1.848m.939 1.848v1.874H71.3V12.55c0-.507.492-.821.949-.821h4.053c.456 0 .949.314.949.821"/><path d="M77.772 18.906c-.419 0-.76-.334-.76-.745v-2.505h-5.474v2.506c0 .411-.341.745-.76.745a.74.74 0 0 1-.749-.745v-5.612c0-1.15.991-2.085 2.21-2.085h4.072c1.062 0 2.21.797 2.21 2.085v5.612c0 .411-.336.745-.749.745m-6.712-3.725h6.428v2.979c0 .15.127.272.283.272.15 0 .272-.122.272-.272v-5.612c0-.996-.9-1.612-1.733-1.612h-4.072c-.956 0-1.733.723-1.733 1.612v5.612c0 .155.117.272.272.272s.283-.122.283-.272v-2.979zm6.428-.522h-6.428v-2.111c0-.654.617-1.059 1.188-1.059h4.053c.571 0 1.188.405 1.188 1.059zm-5.951-.474h5.474v-1.636c0-.361-.369-.584-.71-.584h-4.053c-.342 0-.711.223-.711.584v1.636z"/></svg>